<svg xmlns="http://www.w3.org/2000/svg" fill="none" viewBox="0 0 261 51">
    <path fill="#3A4651" d="M58.1 30.4a7 7 0 0 0 7.1 7.1c4.4 0 8.6-3.6 8.6-8.6V18.3c0-1 .6-1.6 1.6-1.6s1.8.6 1.8 1.6v20.5c0 2-3.3 2.1-3.3 0v-3c-1.7 3.4-5.2 4.8-8.7 4.8-5.3 0-10.4-3.6-10.4-10.2v-12c0-1 .6-1.7 1.6-1.7s1.7.6 1.7 1.6v12.1Zm36.5-13.7c3 0 6 1.3 7.4 3.7v-9.1c0-2.1 3.3-2.1 3.3 0v27.5c0 1-.6 1.6-1.7 1.6-1 0-1.5-.6-1.5-1.6v-2.1a8.6 8.6 0 0 1-7.5 4c-1.4 0-3-.3-4.4-.8-5-2-7.5-6.6-7.3-11.9.2-6.4 4.8-11.3 11.7-11.3Zm7.4 13.8v-3.6c0-4-3.1-6.9-7.3-7a8.4 8.4 0 0 0-7.8 4.8 11 11 0 0 0-.7 3.4c0 3 1 5.7 3.4 7.7 1.3 1 3 1.6 4.7 1.8 4.2 0 7.7-2.7 7.7-7.1Zm11.8 6c-2-2.4-3-5.4-2.8-8.8a11.7 11.7 0 0 1 12-11.1 11.7 11.7 0 0 1 11.9 11.1c0 3.4-.8 6.4-2.8 8.8a11.7 11.7 0 0 1-9.2 4c-3.6 0-6.9-1.3-9.1-4Zm9-16.8a8 8 0 0 0-2.3.3c-3.9 1-6.1 4.6-6.1 8.7a8.5 8.5 0 0 0 8.5 8.8 9 9 0 0 0 6.6-3c1.3-1.6 2-3.8 2-5.7 0-4.2-2.2-7.8-6.1-8.8a11 11 0 0 0-2.5-.3Zm32.5 20.2c-1.3.5-2.9.8-4.3.8-2.8 0-6-1.2-7.5-4v2.1c0 1-.5 1.6-1.6 1.6-1 0-1.7-.6-1.7-1.6V11.3c0-2.1 3.4-2.1 3.4 0v9c1.4-2.3 4.3-3.6 7.4-3.6 6.8 0 11.5 4.9 11.7 11.3a12 12 0 0 1-7.4 11.9Zm.7-4a10 10 0 0 0 3.4-7.8 11 11 0 0 0-.7-3.4 8.4 8.4 0 0 0-7.8-4.9c-4.2.2-7.3 3-7.3 7v3.7c0 4.4 3.5 7 7.7 7 1.7 0 3.3-.6 4.7-1.7Zm13.9.6c-2-2.4-3-5.4-2.8-8.8a11.7 11.7 0 0 1 12-11.1A11.7 11.7 0 0 1 191 27.7c0 3.4-.8 6.4-2.8 8.8a11.7 11.7 0 0 1-9.2 4c-3.6 0-6.9-1.3-9.1-4Zm9-16.8c-.8 0-1.7.1-2.4.3-3.8 1-6 4.6-6 8.7a8.5 8.5 0 0 0 8.5 8.8 9 9 0 0 0 6.6-3c1.3-1.6 2-3.8 2-5.7 0-4.2-2.3-7.8-6.1-8.8-.8-.2-1.7-.3-2.5-.3Zm23.1-2.2a11 11 0 0 1 4.8-.8c2.6 0 5.6.8 7.2 3.5v-1.7c0-1 .6-1.6 1.7-1.6 1 0 1.7.6 1.7 1.6v20.3c0 1-.7 1.6-1.7 1.6s-1.7-.6-1.7-1.6v-2.2c-1.3 2.6-4.7 4.1-7.4 4.1-2.2 0-4.6-.6-6.6-2a12 12 0 0 1-5-10.7 11 11 0 0 1 7-10.5Zm12 13v-3.6c0-4.6-3.1-6.9-7.2-7a8.2 8.2 0 0 0-8.5 8.2 9 9 0 0 0 3.3 7.7c1.4 1 3 1.6 4.7 1.8 4.2 0 7.5-2.6 7.7-7.1Zm13.6-9.8c1.5-3 4.2-3.8 6.8-3.8 1 0 1.7.5 1.7 1.6 0 1-.6 1.5-1.7 1.5-4.7 0-6.7 3.8-6.7 8.4v10.3c0 1-.8 1.6-1.7 1.6-1 0-1.7-.7-1.7-1.6V18.5c0-2 3.3-2.2 3.3 0v2.2Zm22.7-4c3 0 6 1.3 7.4 3.7v-9.1c0-2.1 3.3-2.1 3.3 0v27.5c0 1-.6 1.6-1.7 1.6-1 0-1.5-.6-1.5-1.6v-2.1a8.6 8.6 0 0 1-7.5 4c-1.5 0-3-.3-4.4-.8-5-2-7.5-6.6-7.3-11.9.1-6.4 4.8-11.3 11.7-11.3Zm7.4 13.8v-3.6c0-4-3.1-6.9-7.3-7a8.4 8.4 0 0 0-7.8 4.8 11 11 0 0 0-.7 3.4c0 3 1 5.7 3.4 7.7 1.3 1 3 1.6 4.7 1.8 4.1 0 7.7-2.7 7.7-7.1Z"/>
    <path fill="#0A7EA3" d="M24.6 1.2a24.5 24.5 0 1 0 0 49 24.5 24.5 0 0 0 0-49Z"/>
    <path fill="#000" d="M37.3 40.7v-.3c-2.3-3.3-6.3-5.3-8.6-8.7l-.4-.1c-1.4-.8-3.9-3-5.5-2.7-.9.2-1.6 1.2-2.6 1.3-1.2 0-1.6-.1-2.2-1.2-.4-.9.2-3.1.2-4v-6.3c0-4-.1-7.6-1-11.4L0 24.4v1.3a24.5 24.5 0 0 0 29 24l8.5-8.4a2 2 0 0 1-.2-.6Z" opacity=".1"/>
    <path fill="#fff" d="M33.8 15c2.1-2 4.8.7 2.8 2.6l-10 9.1 11 12c1.8 2.2-1.4 4.4-3 2.3L23.8 29l-3.2 2.8V40c0 2.3-3.8 2.4-3.8 0V8.3c0-2.2 3.8-2.2 3.8 0v19.1l3.7-3.6 9.5-8.9Z"/>
</svg>
