<svg width="34" height="34" viewBox="0 0 34 34" fill="none" xmlns="http://www.w3.org/2000/svg">
<path d="M16.9318 0C7.86763 0 0.469126 7.15175 0.0215145 16.1401C0.00860266 16.4253 0 16.7105 0 17C0 26.3902 7.57927 34 16.9318 34C17.9992 34 19.045 33.8963 20.0564 33.7062C27.9112 32.2326 33.8635 25.3142 33.8635 17C33.8635 7.60981 26.2843 0 16.9318 0Z" fill="white"/>
<path opacity="0.12" d="M25.7291 27.4402C25.7118 27.3624 25.7204 27.2933 25.7291 27.2241C24.1065 24.9122 21.3993 23.5164 19.8068 21.1786C19.7035 21.1829 19.6002 21.17 19.4883 21.1095C18.5285 20.5909 16.8414 19.0828 15.7224 19.2686C15.1026 19.3723 14.6119 20.094 13.9233 20.1372C13.0797 20.1934 12.8172 20.0594 12.447 19.3205C12.1415 18.7155 12.5202 17.1468 12.546 16.4857C12.5934 15.0424 12.6063 13.6077 12.5891 12.1644C12.5589 9.41603 12.4815 6.88807 11.8832 4.23047L0.0215145 16.14C0.00860266 16.4252 0 16.7104 0 16.9999C0 26.3901 7.57927 33.9999 16.9318 33.9999C17.9991 33.9999 19.045 33.8962 20.0564 33.7061L25.884 27.855C25.8151 27.7384 25.7635 27.6044 25.7291 27.4402Z" fill="white"/>
<path d="M23.3402 9.54587C24.7648 8.26244 26.6327 10.0601 25.2426 11.3824L18.4036 17.7347L25.9355 26.0748C27.1793 27.583 24.9843 29.1214 23.8524 27.6521L16.3893 19.2429L14.233 21.1875V26.9175C14.233 28.5682 11.5646 28.6417 11.5646 26.9175V4.95232C11.5646 3.44851 14.233 3.44851 14.233 4.95232V18.2101L16.7551 15.7124L23.3402 9.54587Z" fill="#04BFFA"/>
</svg>
