<svg xmlns="http://www.w3.org/2000/svg" fill="none" viewBox="0 0 50 50">
  <g clip-path="url(#a)">
    <path fill="#0A7EA3" d="M25 0a25 25 0 1 0 0 50 25 25 0 0 0 0-50Z"/>
    <path fill="#000" d="M38 40.4V40c-2.4-3.4-6.4-5.5-8.8-9h-.4c-1.4-.8-4-3-5.6-2.7-.9.1-1.6 1.2-2.6 1.2-1.3.1-1.7 0-2.2-1.2-.5-.9 0-3.2.1-4.1 0-2.2.1-4.3 0-6.4 0-4 0-7.7-1-11.7L0 23.8V25a25 25 0 0 0 29.6 24.6l8.6-8.6a2 2 0 0 1-.2-.6Z" opacity=".1"/>
    <path fill="#fff" d="M34.5 14c2-1.8 4.8.8 2.8 2.8L27.2 26l11 12.3c2 2.2-1.3 4.5-3 2.3l-11-12.4-3.2 2.9v8.4c0 2.4-4 2.5-4 0V7.3c0-2.2 4-2.2 4 0v19.5l3.7-3.7 9.8-9V14Z"/>
  </g>
  <defs>
    <clipPath id="a">
      <path fill="#fff" d="M0 0h50v50H0z"/>
    </clipPath>
  </defs>
</svg>
