<svg width="176" height="34" viewBox="0 0 176 34" fill="none" xmlns="http://www.w3.org/2000/svg">
<path d="M39.1531 20.5303C39.1531 23.3483 41.4192 25.3051 43.8986 25.3051C46.8672 25.3051 49.6559 22.855 49.6559 19.5185V12.4148C49.6559 11.7417 50.0531 11.3445 50.7597 11.3445C51.4663 11.3445 51.9221 11.7417 51.9221 12.4148V26.1329C51.9221 27.5419 49.7187 27.5712 49.7187 26.1036V24.1762C48.6149 26.413 46.2609 27.3914 43.8693 27.3914C40.3196 27.3914 36.9204 24.9413 36.9204 20.5345V12.419C36.9204 11.7459 37.3176 11.3487 38.0242 11.3487C38.6974 11.3487 39.1573 11.7459 39.1573 12.419V20.5303H39.1531Z" fill="white"/>
<path d="M63.5872 11.3152C65.6401 11.3152 67.6303 12.1723 68.546 13.7946V7.70276C68.546 6.29374 70.7828 6.29374 70.7828 7.70276V26.1956C70.7828 26.8688 70.3564 27.266 69.6498 27.266C68.9432 27.266 68.6087 26.8688 68.6087 26.1956V24.7573C67.5676 26.6555 65.4227 27.4541 63.5872 27.4541C62.6381 27.4541 61.597 27.2701 60.6479 26.8729L60.6772 26.9022C57.3407 25.5225 55.6557 22.4912 55.7477 18.9415C55.8731 14.5932 58.9964 11.3152 63.5872 11.3152ZM68.5501 20.5637V18.1429C68.5501 15.4503 66.468 13.5521 63.6834 13.4266C61.5092 13.4266 59.3351 14.589 58.4487 16.7046C58.202 17.3485 58.018 18.1722 57.9888 18.9707C57.9595 20.9609 58.5992 22.7964 60.2549 24.1762C61.1413 24.8828 62.2451 25.2465 63.4074 25.3385C66.192 25.3385 68.5501 23.5615 68.5501 20.5637Z" fill="white"/>
<path d="M76.4481 24.6026C75.0684 22.9803 74.4872 21.0194 74.5792 18.724C74.8844 15.3248 76.8746 12.4775 80.2446 11.5284C80.9804 11.3152 81.8041 11.2524 82.5692 11.2524C83.3051 11.2524 84.041 11.3152 84.8354 11.5284C88.1719 12.4775 90.254 15.2955 90.53 18.724C90.6512 21.0194 90.0408 22.9803 88.6945 24.6026C87.1935 26.4088 84.9901 27.3579 82.5692 27.3579C80.1233 27.3621 77.9492 26.4088 76.4481 24.6026ZM82.5441 13.3388C81.963 13.3388 81.3818 13.4308 80.9219 13.552C78.3505 14.2252 76.8495 16.6126 76.8495 19.3679C76.8495 20.7476 77.2802 22.1859 78.1958 23.2563C79.2662 24.544 80.8926 25.2757 82.5734 25.2757C84.2249 25.2757 85.9099 24.4813 86.9844 23.2563C87.8416 22.2152 88.3307 20.7476 88.3307 19.4306C88.3307 16.646 86.8297 14.2252 84.2291 13.552C83.7358 13.4308 83.1253 13.3388 82.5441 13.3388Z" fill="white"/>
<path d="M104.286 26.9022L104.315 26.8729C103.366 27.2701 102.325 27.4541 101.376 27.4541C99.5403 27.4541 97.3954 26.6597 96.3543 24.7573V26.1956C96.3543 26.8688 96.0157 27.266 95.3132 27.266C94.6066 27.266 94.1802 26.8688 94.1802 26.1956V7.70276C94.1802 6.29374 96.417 6.29374 96.417 7.70276V13.7946C97.3369 12.1723 99.3271 11.3152 101.376 11.3152C105.971 11.3152 109.09 14.5932 109.215 18.9373C109.307 22.4912 107.622 25.5225 104.286 26.9022ZM104.712 24.1762C106.364 22.7964 107.008 20.9609 106.978 18.9707C106.949 18.1763 106.765 17.3485 106.519 16.7046C105.632 14.5932 103.458 13.4266 101.284 13.4266C98.4992 13.5479 96.417 15.4461 96.417 18.1429V20.5637C96.417 23.5657 98.7752 25.3385 101.56 25.3385C102.722 25.2465 103.826 24.8786 104.712 24.1762Z" fill="white"/>
<path d="M114.024 24.6026C112.644 22.9803 112.063 21.0194 112.155 18.724C112.46 15.3248 114.45 12.4775 117.82 11.5284C118.556 11.3152 119.384 11.2524 120.149 11.2524C120.885 11.2524 121.617 11.3152 122.415 11.5284C125.752 12.4775 127.834 15.2955 128.11 18.724C128.231 21.0194 127.621 22.9803 126.274 24.6026C124.773 26.4088 122.57 27.3579 120.149 27.3579C117.699 27.3621 115.525 26.4088 114.024 24.6026ZM120.116 13.3388C119.534 13.3388 118.953 13.4308 118.493 13.552C115.922 14.2252 114.421 16.6126 114.421 19.3679C114.421 20.7476 114.848 22.1859 115.767 23.2563C116.838 24.544 118.46 25.2757 120.145 25.2757C121.796 25.2757 123.481 24.4813 124.552 23.2563C125.409 22.2152 125.898 20.7476 125.898 19.4306C125.898 16.646 124.397 14.2252 121.796 13.552C121.311 13.4308 120.697 13.3388 120.116 13.3388Z" fill="white"/>
<path d="M135.489 11.8964C136.5 11.4365 137.6 11.286 138.766 11.3153C140.51 11.3445 142.5 11.8964 143.604 13.7027V12.5403C143.604 11.8964 144.001 11.4365 144.708 11.4365C145.381 11.4365 145.841 11.8964 145.841 12.5403V26.133C145.841 26.8061 145.381 27.2368 144.708 27.2368C144.005 27.2368 143.604 26.8061 143.604 26.133V24.6654C142.718 26.4424 140.451 27.45 138.645 27.45C137.173 27.45 135.522 27.0528 134.234 26.133C131.905 24.54 130.714 21.9394 130.806 18.9374C130.868 15.8434 132.583 12.9961 135.522 11.863L135.489 11.8964ZM143.604 20.5638V18.1429C143.604 15.1117 141.493 13.5521 138.737 13.4267C136.563 13.3974 134.36 14.5598 133.503 16.7047C133.227 17.3486 133.076 18.1722 133.043 18.9708C132.98 20.961 133.624 22.7965 135.279 24.1762C136.199 24.8828 137.299 25.2466 138.432 25.3386C141.246 25.3386 143.449 23.6243 143.604 20.5638Z" fill="white"/>
<path d="M152.699 14.0413C153.677 11.9884 155.517 11.4407 157.26 11.4407C157.967 11.4407 158.422 11.8086 158.422 12.511C158.422 13.1842 157.963 13.5521 157.26 13.5521C154.108 13.5521 152.761 16.0608 152.761 19.1547V26.0744C152.761 26.7183 152.243 27.1448 151.657 27.1448C150.984 27.1448 150.524 26.7141 150.524 26.0744V12.511C150.524 11.1647 152.699 11.0393 152.699 12.511V14.0413Z" fill="white"/>
<path d="M167.884 11.3152C169.937 11.3152 171.927 12.1723 172.843 13.7946V7.70276C172.843 6.29374 175.08 6.29374 175.08 7.70276V26.1956C175.08 26.8688 174.649 27.266 173.947 27.266C173.244 27.266 172.906 26.8688 172.906 26.1956V24.7573C171.864 26.6555 169.72 27.4541 167.884 27.4541C166.935 27.4541 165.894 27.2701 164.945 26.8729L164.974 26.9022C161.638 25.5225 159.953 22.4912 160.045 18.9415C160.17 14.5932 163.293 11.3152 167.884 11.3152ZM172.847 20.5637V18.1429C172.847 15.4503 170.765 13.5521 167.98 13.4266C165.806 13.4266 163.632 14.589 162.746 16.7046C162.499 17.3485 162.315 18.1722 162.286 18.9707C162.256 20.9609 162.896 22.7964 164.552 24.1762C165.438 24.8828 166.542 25.2465 167.704 25.3385C170.489 25.3385 172.847 23.5615 172.847 20.5637Z" fill="white"/>
<path fill-rule="evenodd" clip-rule="evenodd" d="M0.23965 16.5164C0.674481 7.81981 7.86174 0.900146 16.6671 0.900146C25.7525 0.900146 33.1154 8.263 33.1154 17.3485C33.1154 25.3928 27.333 32.0867 19.7025 33.5125C18.72 33.6964 17.704 33.7968 16.6671 33.7968C7.5816 33.7968 0.21875 26.4339 0.21875 17.3485C0.21875 17.0683 0.227107 16.7924 0.23965 16.5164ZM24.7405 11.913C26.091 10.6336 24.2764 8.89427 22.8925 10.1361L16.4954 16.1024L14.0453 18.5191V5.69158C14.0453 4.23657 11.4531 4.23657 11.4531 5.69158V26.9439C11.4531 28.6122 14.0453 28.5411 14.0453 26.9439V21.3998L16.14 19.5184L23.39 27.6547C24.4896 29.0763 26.622 27.5878 25.4136 26.1286L18.0968 18.0592L24.7405 11.913Z" fill="white"/>
</svg>
