<svg xmlns="http://www.w3.org/2000/svg" xmlns:xlink="http://www.w3.org/1999/xlink" width="3000" zoomAndPan="magnify" viewBox="0 0 2250 2250.000011" height="3000" preserveAspectRatio="xMidYMid meet" version="1.0"><defs><clipPath id="77650a8756"><path d="M 0.5 0 L 2249.5 0 L 2249.5 2249 L 0.5 2249 Z M 0.5 0 " clip-rule="nonzero"/></clipPath><clipPath id="9688009059"><path d="M 225.398438 58.308594 L 2024 58.308594 L 2024 2190.359375 L 225.398438 2190.359375 Z M 225.398438 58.308594 " clip-rule="nonzero"/></clipPath></defs><g clip-path="url(#77650a8756)"><path fill="#ffffff" d="M 0.5 0 L 2249.5 0 L 2249.5 2256.496094 L 0.5 2256.496094 Z M 0.5 0 " fill-opacity="1" fill-rule="nonzero"/><path fill="#ffffff" d="M 0.5 0 L 2249.5 0 L 2249.5 2249 L 0.5 2249 Z M 0.5 0 " fill-opacity="1" fill-rule="nonzero"/><path fill="#ffffff" d="M 0.5 0 L 2249.5 0 L 2249.5 2249 L 0.5 2249 Z M 0.5 0 " fill-opacity="1" fill-rule="nonzero"/></g><g clip-path="url(#9688009059)"><path fill="#5e17eb" d="M 457.335938 190.714844 C 504.742188 111.402344 591.457031 58.308594 690.566406 58.308594 C 950.539062 58.308594 1367.703125 58.308594 1659.339844 58.308594 C 1755.972656 58.308594 1848.675781 96.695312 1917.003906 165.015625 C 1985.332031 233.363281 2023.726562 326.019531 2023.726562 422.640625 C 2023.726562 728.121094 2023.726562 1173.71875 2023.726562 1445.625 C 2023.726562 1559 1954.191406 1656.175781 1855.410156 1696.777344 C 1829.640625 1801.074219 1735.410156 1878.40625 1623.15625 1878.40625 L 1107.5 1878.40625 L 1107.5 1733.472656 L 1261.957031 1733.472656 C 1421.78125 1733.472656 1551.347656 1603.929688 1551.347656 1444.128906 C 1551.347656 1429.683594 1551.347656 1376.296875 1551.347656 1361.789062 C 1551.347656 1336.023438 1530.425781 1315.136719 1504.6875 1315.136719 C 1478.917969 1315.136719 1458.027344 1336.023438 1458.027344 1361.789062 L 1458.027344 1386.058594 L 1383.125 1386.058594 L 1383.125 1039.164062 L 1215.429688 1039.164062 C 1206.1875 1039.164062 1198.703125 1031.679688 1198.703125 1022.441406 C 1198.703125 1005.523438 1198.703125 979.53125 1198.703125 962.613281 C 1198.703125 953.375 1206.1875 945.859375 1215.429688 945.859375 L 1383.125 945.859375 L 1383.125 829.230469 L 1215.429688 829.230469 C 1206.1875 829.230469 1198.703125 821.75 1198.703125 812.507812 C 1198.703125 795.59375 1198.703125 769.597656 1198.703125 752.683594 C 1198.703125 743.441406 1206.1875 735.925781 1215.429688 735.925781 L 1383.125 735.925781 L 1383.125 619.296875 L 1215.429688 619.296875 C 1206.1875 619.296875 1198.703125 611.816406 1198.703125 602.578125 C 1198.703125 585.660156 1198.703125 559.667969 1198.703125 542.75 C 1198.703125 533.511719 1206.1875 525.996094 1215.429688 525.996094 L 1383.125 525.996094 L 1383.125 458.652344 C 1383.125 375.628906 1315.773438 308.320312 1232.738281 308.320312 C 1120.355469 308.320312 967.460938 308.320312 855.074219 308.320312 C 772.007812 308.320312 704.71875 375.628906 704.71875 458.652344 L 704.71875 525.996094 L 872.386719 525.996094 C 881.625 525.996094 889.140625 533.511719 889.140625 542.75 C 889.140625 559.667969 889.140625 585.660156 889.140625 602.578125 C 889.140625 611.816406 881.625 619.296875 872.386719 619.296875 L 704.71875 619.296875 L 704.71875 735.925781 L 872.386719 735.925781 C 881.625 735.925781 889.140625 743.441406 889.140625 752.683594 C 889.140625 769.597656 889.140625 795.59375 889.140625 812.507812 C 889.140625 821.75 881.625 829.230469 872.386719 829.230469 L 704.71875 829.230469 L 704.71875 945.859375 L 872.386719 945.859375 C 881.625 945.859375 889.140625 953.375 889.140625 962.613281 C 889.140625 979.53125 889.140625 1005.523438 889.140625 1022.441406 C 889.140625 1031.679688 881.625 1039.164062 872.386719 1039.164062 L 704.71875 1039.164062 L 704.71875 1386.058594 L 629.816406 1386.058594 L 629.816406 1361.789062 C 629.816406 1336.023438 608.894531 1315.136719 583.125 1315.136719 C 557.390625 1315.136719 536.5 1336.023438 536.5 1361.789062 C 536.5 1361.789062 536.5 1418.003906 536.5 1444.128906 C 536.5 1603.929688 666.0625 1733.472656 825.855469 1733.472656 L 980.3125 1733.472656 L 980.3125 2190.359375 L 653.441406 1878.40625 L 464.65625 1878.40625 C 332.554688 1878.40625 225.441406 1771.308594 225.441406 1639.195312 C 225.441406 1318.066406 225.441406 750.925781 225.441406 429.796875 C 225.441406 300.15625 328.585938 194.585938 457.335938 190.714844 Z M 1457.964844 1448.878906 C 1455.457031 1554.96875 1368.648438 1640.167969 1261.957031 1640.167969 C 1127.347656 1640.167969 960.464844 1640.167969 825.855469 1640.167969 C 719.164062 1640.167969 632.355469 1554.96875 629.851562 1448.878906 L 706.183594 1448.878906 C 716.496094 1521.882812 779.230469 1578 855.074219 1578 C 967.460938 1578 1120.355469 1578 1232.738281 1578 C 1308.582031 1578 1371.316406 1521.882812 1381.628906 1448.878906 Z M 1862.371094 1620.84375 L 1862.371094 429.796875 C 1862.371094 297.683594 1755.257812 190.585938 1623.15625 190.585938 L 537.410156 190.585938 C 575.253906 148.976562 629.851562 122.820312 690.566406 122.820312 C 950.539062 122.820312 1367.703125 122.820312 1659.339844 122.820312 C 1738.859375 122.820312 1815.128906 154.410156 1871.351562 210.65625 C 1927.609375 266.875 1959.203125 343.128906 1959.203125 422.640625 C 1959.203125 728.121094 1959.203125 1173.71875 1959.203125 1445.625 C 1959.203125 1519.410156 1920.550781 1584.214844 1862.371094 1620.84375 " fill-opacity="1" fill-rule="evenodd"/></g></svg>